<?xml version="1.0" encoding="utf-8"?>
<!-- Generator: Adobe Illustrator 16.0.0, SVG Export Plug-In . SVG Version: 6.00 Build 0)  -->
<svg version="1.2" baseProfile="tiny" xmlns="http://www.w3.org/2000/svg" xmlns:xlink="http://www.w3.org/1999/xlink" x="0px"
	 y="0px" width="128px" height="128px" viewBox="0 0 128 128" xml:space="preserve">
<g id="Ebene_1" display="none">
	
		<line id="plusminus" fill="none" stroke="#FFFFFF" stroke-width="7" stroke-linecap="round" stroke-miterlimit="10" x1="21" y1="64.5" x2="107" y2="64.5"/>
	
		<line id="plus" fill="none" stroke="#FFFFFF" stroke-width="7" stroke-linecap="round" stroke-miterlimit="10" x1="63.5" y1="108" x2="63.5" y2="22"/>
	
		<line id="x_1_" fill="none" stroke="#FFFFFF" stroke-width="7" stroke-linecap="round" stroke-miterlimit="10" x1="93.905" y1="95.405" x2="33.095" y2="34.594"/>
	
		<line id="x" fill="none" stroke="#FFFFFF" stroke-width="7" stroke-linecap="round" stroke-miterlimit="10" x1="93.905" y1="33.595" x2="33.095" y2="94.405"/>
</g>
<g id="Ebene_2">
	
		<polygon id="plus_1_" fill="none" stroke="#FFFFFF" stroke-width="7" stroke-linecap="round" stroke-linejoin="round" stroke-miterlimit="10" points="
		47.933,104.849 86.817,50.902 97.927,35.488 80.892,23.209 69.878,38.488 30.896,92.569 34.591,105.401 	"/>
	
		<line fill="none" stroke="#FFFFFF" stroke-width="7" stroke-linecap="square" stroke-linejoin="round" stroke-miterlimit="10" x1="82.355" y1="47.686" x2="73.432" y2="41.254"/>
	
		<line fill="none" stroke="#FFFFFF" stroke-width="7" stroke-linecap="square" stroke-linejoin="round" stroke-miterlimit="10" x1="42.594" y1="103.85" x2="33.67" y2="97.417"/>
	
		<line fill="none" stroke="#FFFFFF" stroke-width="7" stroke-linecap="square" stroke-linejoin="round" stroke-miterlimit="10" x1="46.102" y1="98.981" x2="37.179" y2="92.55"/>
</g>
<g id="Ebene_3">
	<path fill="none" stroke="#FFFFFF" stroke-width="7" stroke-miterlimit="10" d="M122.5,118.561c0,2.176-1.764,3.939-3.939,3.939
		H9.439c-2.175,0-3.939-1.764-3.939-3.939V9.439C5.5,7.264,7.264,5.5,9.439,5.5h109.122c2.176,0,3.939,1.764,3.939,3.939V118.561z"
		/>
	<g>
	</g>
	<g>
	</g>
	<g>
	</g>
	<g>
	</g>
	<g>
	</g>
	<g>
	</g>
	<g>
	</g>
	<g>
	</g>
	<g>
	</g>
	<g>
	</g>
	<g>
	</g>
	<g>
	</g>
	<g>
	</g>
	<g>
	</g>
	<g>
	</g>
</g>
</svg>
