<?xml version="1.0" encoding="utf-8"?>
<!-- Generator: Adobe Illustrator 16.0.0, SVG Export Plug-In . SVG Version: 6.00 Build 0)  -->
<svg version="1.2" baseProfile="tiny" xmlns="http://www.w3.org/2000/svg" xmlns:xlink="http://www.w3.org/1999/xlink" x="0px"
	 y="0px" width="400px" height="263.666px" viewBox="0 0 400 263.666" xml:space="preserve">
<g id="Ebene_1">
	<path fill="#FF0018" stroke="#FFFFFF" stroke-width="7" stroke-miterlimit="10" d="M127.5,136.561c0,2.175-1.764,3.939-3.939,3.939
		H14.439c-2.175,0-3.939-1.764-3.939-3.939V27.439c0-2.175,1.764-3.939,3.939-3.939h109.122c2.175,0,3.939,1.764,3.939,3.939
		V136.561z"/>
</g>
<g id="Ebene_3">
	<g>
		<path fill="#FFFFFF" stroke="#FFFFFF" stroke-width="3" stroke-miterlimit="10" d="M40.847,56.075c0,0.337-0.109,0.724-0.327,1.16
			c-2.379,4.698-4.073,8.821-5.084,12.369c-1.17,4.123-1.754,8.543-1.754,13.261c0,4.718,0.584,9.139,1.754,13.261
			c1.011,3.548,2.706,7.661,5.084,12.339c0.218,0.436,0.327,0.833,0.327,1.189c0,0.595-0.238,1.11-0.714,1.546
			c-0.476,0.436-1.011,0.654-1.605,0.654c-0.833,0-1.655-0.684-2.468-2.051c-0.159-0.278-0.665-1.329-1.517-3.152
			c-3.548-7.612-5.322-15.541-5.322-23.787c0-8.246,1.774-16.175,5.322-23.787c0.852-1.823,1.357-2.884,1.517-3.182
			c0.813-1.348,1.635-2.021,2.468-2.021c0.595,0,1.13,0.218,1.605,0.654C40.609,54.965,40.847,55.48,40.847,56.075z"/>
		<path fill="#FFFFFF" stroke="#FFFFFF" stroke-width="3" stroke-miterlimit="10" d="M84.822,96.272c0,1.489-0.743,2.232-2.23,2.232
			c-1.486,0-2.23-0.744-2.23-2.232V80.645c0-2.46-0.873-4.563-2.616-6.31c-1.745-1.746-3.846-2.62-6.304-2.62
			c-2.458,0-4.56,0.874-6.304,2.62c-1.744,1.747-2.616,3.85-2.616,6.31v15.628c0,1.489-0.744,2.232-2.23,2.232
			c-1.487,0-2.23-0.744-2.23-2.232V69.487c0-1.488,0.743-2.232,2.23-2.232c1.506,0,2.25,1.14,2.23,3.419
			c2.537-2.279,5.51-3.419,8.92-3.419c3.687,0,6.839,1.31,9.455,3.929c2.617,2.619,3.925,5.774,3.925,9.464V96.272z"/>
		<path fill="#FFFFFF" stroke="#FFFFFF" stroke-width="3" stroke-miterlimit="10" d="M112.177,82.865
			c0,8.247-1.765,16.175-5.292,23.787c-0.873,1.823-1.388,2.874-1.546,3.152c-0.813,1.368-1.635,2.051-2.468,2.051
			c-0.595,0-1.13-0.218-1.605-0.654c-0.476-0.437-0.714-0.952-0.714-1.546c0-0.337,0.109-0.733,0.327-1.189
			c2.379-4.678,4.074-8.791,5.084-12.339c1.169-4.123,1.754-8.543,1.754-13.261c0-4.717-0.585-9.138-1.754-13.261
			c-1.011-3.548-2.706-7.671-5.084-12.369c-0.218-0.436-0.327-0.822-0.327-1.16c0-0.595,0.238-1.11,0.714-1.546
			c0.476-0.436,1.011-0.654,1.605-0.654c0.833,0,1.655,0.674,2.468,2.021c0.159,0.297,0.664,1.358,1.517,3.182
			C110.403,66.69,112.177,74.619,112.177,82.865z"/>
	</g>
	<g>
		<path fill="#FFFFFF" d="M220.467,87.211c0,10.074-3.573,18.685-10.717,25.833c-7.145,7.149-15.75,10.723-25.815,10.723h-6.088
			c-0.974,0-1.827-0.365-2.557-1.097c-0.731-0.731-1.096-1.584-1.096-2.559V54.311c0-0.974,0.365-1.827,1.096-2.559
			c0.73-0.731,1.583-1.097,2.557-1.097h6.088c10.066,0,18.671,3.575,25.815,10.723C216.894,68.528,220.467,77.139,220.467,87.211z
			 M213.16,87.211c0-8.06-2.858-14.949-8.572-20.669c-5.716-5.72-12.6-8.58-20.653-8.58H181.5v58.499h2.435
			c8.053,0,14.937-2.859,20.653-8.58C210.302,102.161,213.16,95.271,213.16,87.211z"/>
		<path fill="#FFFFFF" d="M278.917,98.171c0,7.054-2.501,13.083-7.502,18.088c-5.001,5.006-11.024,7.508-18.07,7.508
			c-7.047,0-13.071-2.502-18.071-7.508c-5.001-5.005-7.501-11.035-7.501-18.088c0-7.053,2.5-13.082,7.501-18.087
			c5-5.006,11.024-7.509,18.071-7.509c7.046,0,13.069,2.503,18.07,7.509C276.416,85.089,278.917,91.118,278.917,98.171z
			 M271.61,98.171c0-5.04-1.786-9.348-5.358-12.924c-3.572-3.577-7.875-5.366-12.907-5.366c-5.034,0-9.336,1.789-12.908,5.366
			c-3.572,3.577-5.357,7.885-5.357,12.924c0,5.04,1.785,9.348,5.357,12.925s7.874,5.365,12.908,5.365
			c5.032,0,9.335-1.788,12.907-5.365S271.61,103.211,271.61,98.171z"/>
		<path fill="#FFFFFF" d="M337.416,120.069c0,0.974-0.382,1.834-1.145,2.58c-0.763,0.746-1.632,1.119-2.605,1.119
			c-1.007,0-1.899-0.422-2.679-1.267l-7.84-8.721c-3.963,6.659-9.564,9.988-16.806,9.988c-5.781,0-10.62-2.242-14.517-6.727
			c-3.734-4.29-5.602-9.358-5.602-15.207c0-8.091,3.149-14.297,9.449-18.619c-4.092-4.549-6.137-9.31-6.137-14.282
			c0-4.874,1.559-9.098,4.676-12.673c3.279-3.737,7.322-5.605,12.128-5.605c4.773,0,8.8,1.867,12.08,5.601
			c3.117,3.571,4.676,7.792,4.676,12.661c0,4.351-1.282,8.247-3.846,11.688c-2.694,3.571-6.15,5.698-10.369,6.379l27.556,30.65
			C337.09,118.382,337.416,119.193,337.416,120.069z M317.947,107.924l-17.307-19.178c-4.741,2.7-7.11,7.059-7.11,13.077
			c0,3.806,1.169,7.141,3.509,10.002c2.469,3.091,5.572,4.636,9.309,4.636C311.773,116.461,315.64,113.616,317.947,107.924z
			 M315.79,68.921c0-2.825-0.845-5.325-2.533-7.501c-1.851-2.306-4.157-3.458-6.917-3.458c-2.793,0-5.114,1.153-6.965,3.458
			c-1.689,2.176-2.533,4.676-2.533,7.501c0,2.338,0.568,4.433,1.705,6.283c0.552,0.813,1.964,2.484,4.237,5.017
			c1.169-0.227,2.354-0.341,3.556-0.341c2.76,0,5.066-1.152,6.917-3.458C314.945,74.248,315.79,71.747,315.79,68.921z"/>
	</g>
	<g>
		<path fill="#FFFFFF" d="M220.467,171.583c0,10.074-3.573,18.685-10.717,25.833c-7.144,7.149-15.75,10.723-25.815,10.723h-6.088
			c-0.974,0-1.827-0.365-2.557-1.097c-0.731-0.731-1.096-1.584-1.096-2.56v-65.8c0-0.974,0.365-1.827,1.096-2.559
			c0.73-0.731,1.583-1.097,2.557-1.097h6.088c10.066,0,18.672,3.575,25.815,10.723C216.894,152.899,220.467,161.51,220.467,171.583z
			 M213.16,171.583c0-8.06-2.858-14.949-8.573-20.669c-5.715-5.72-12.599-8.58-20.652-8.58H181.5v58.499h2.435
			c8.053,0,14.937-2.859,20.652-8.58C210.302,186.532,213.16,179.643,213.16,171.583z"/>
		<path fill="#FFFFFF" d="M278.917,182.542c0,7.054-2.501,13.083-7.502,18.088c-5.001,5.006-11.024,7.508-18.07,7.508
			c-7.047,0-13.071-2.502-18.071-7.508c-5.001-5.005-7.501-11.035-7.501-18.088c0-7.053,2.5-13.082,7.501-18.087
			c5-5.006,11.024-7.509,18.071-7.509c7.046,0,13.069,2.503,18.07,7.509C276.416,169.46,278.917,175.489,278.917,182.542z
			 M271.61,182.542c0-5.04-1.786-9.348-5.358-12.924c-3.572-3.577-7.875-5.366-12.907-5.366c-5.034,0-9.336,1.789-12.908,5.366
			c-3.572,3.577-5.357,7.885-5.357,12.924c0,5.04,1.785,9.348,5.357,12.925s7.874,5.365,12.908,5.365
			c5.032,0,9.335-1.788,12.907-5.365S271.61,187.582,271.61,182.542z"/>
		<path fill="#FFFFFF" d="M334.933,204.481c0,2.438-1.218,3.657-3.653,3.657s-3.653-1.219-3.653-3.657V178.88
			c0-4.03-1.43-7.476-4.286-10.337c-2.858-2.861-6.301-4.292-10.326-4.292c-4.027,0-7.47,1.431-10.326,4.292
			c-2.858,2.861-4.287,6.307-4.287,10.337v25.601c0,2.438-1.218,3.657-3.653,3.657c-2.435,0-3.652-1.219-3.652-3.657v-43.879
			c0-2.438,1.218-3.657,3.652-3.657c2.468,0,3.686,1.868,3.653,5.601c4.156-3.733,9.027-5.601,14.613-5.601
			c6.039,0,11.203,2.146,15.489,6.436c4.286,4.291,6.43,9.458,6.43,15.504V204.481z"/>
		<path fill="#FFFFFF" d="M395.866,193.438c0,0.619-0.194,1.286-0.584,2.002c-2.24,3.907-5.602,7.016-10.083,9.328
			c-4.254,2.247-8.719,3.37-13.395,3.37c-7.307,0-13.606-2.421-18.899-7.265c-5.488-4.973-8.231-11.083-8.231-18.332
			s2.743-13.359,8.231-18.332c5.293-4.843,11.593-7.264,18.899-7.264c2.662,0,5.438,0.471,8.329,1.413
			c3.247,1.071,6.479,2.776,9.693,5.114c3.994,2.922,5.991,5.699,5.991,8.329c0,1.299-0.634,2.29-1.9,2.971l-36.921,19.873
			c3.994,4.125,8.93,6.187,14.808,6.187c6.267,0,11.332-2.185,15.197-6.556c0.454-0.587,1.145-1.483,2.069-2.69
			c0.926-1.207,1.925-1.811,2.996-1.811c0.975,0,1.851,0.358,2.63,1.075C395.477,191.566,395.866,192.429,395.866,193.438z
			 M386.681,170.426c-3.964-4.116-8.919-6.174-14.865-6.174c-5.263,0-9.845,1.708-13.743,5.125
			c-4.062,3.58-6.092,7.973-6.092,13.179c0,2.083,0.365,4.067,1.099,5.955L386.681,170.426z"/>
	</g>
</g>
<g id="Ebene_5">
</g>
<g id="Ebene_4">
	<path fill="#00B229" stroke="#FFFFFF" stroke-width="7" stroke-miterlimit="10" d="M152.5,237.61c0,2.174-0.786,4.89-2.96,4.89
		H39.921c-2.175,0-4.421-2.716-4.421-4.89V127.992c0-2.176,2.246-3.492,4.421-3.492H149.54c2.174,0,2.96,1.316,2.96,3.492V237.61z"
		/>
</g>
<g id="Ebene_2">
	<g>
		<path fill="#FFFFFF" stroke="#FFFFFF" stroke-width="3" stroke-miterlimit="10" d="M64.168,162.1c0,0.337-0.109,0.724-0.327,1.16
			c-2.379,4.698-4.073,8.821-5.084,12.369c-1.17,4.123-1.754,8.543-1.754,13.261c0,4.718,0.584,9.139,1.754,13.261
			c1.011,3.549,2.706,7.662,5.084,12.34c0.218,0.436,0.327,0.833,0.327,1.189c0,0.595-0.238,1.11-0.714,1.546
			c-0.476,0.437-1.011,0.654-1.605,0.654c-0.833,0-1.655-0.684-2.468-2.052c-0.159-0.277-0.665-1.328-1.517-3.151
			c-3.548-7.612-5.322-15.541-5.322-23.787c0-8.246,1.774-16.175,5.322-23.787c0.852-1.823,1.357-2.884,1.517-3.182
			c0.813-1.348,1.635-2.021,2.468-2.021c0.595,0,1.13,0.218,1.605,0.654C63.93,160.99,64.168,161.505,64.168,162.1z"/>
		<path fill="#FFFFFF" stroke="#FFFFFF" stroke-width="3" stroke-miterlimit="10" d="M106.687,175.51v28.99
			c0,3.688-1.309,6.839-3.925,9.455c-2.616,2.617-5.768,3.925-9.455,3.925c-2.339,0-4.56-0.595-6.66-1.784
			c-2.181-1.229-3.816-2.844-4.906-4.846c-0.218-0.437-0.327-0.833-0.327-1.189c0-0.596,0.238-1.111,0.714-1.547
			s1.011-0.654,1.605-0.654c0.674,0,1.298,0.377,1.873,1.131c2.22,2.953,4.787,4.43,7.701,4.43c2.458,0,4.559-0.873,6.304-2.616
			c1.744-1.745,2.616-3.847,2.616-6.304v-3.42c-2.538,2.301-5.511,3.449-8.92,3.449c-3.687,0-6.839-1.309-9.455-3.928
			c-2.617-2.619-3.925-5.773-3.925-9.464v-15.625c0-1.488,0.743-2.232,2.23-2.232c1.486,0,2.23,0.743,2.23,2.23v15.61
			c0,2.458,0.872,4.559,2.617,6.303c1.744,1.745,3.845,2.617,6.303,2.617c2.458,0,4.559-0.872,6.304-2.617
			c1.744-1.744,2.616-3.835,2.616-6.274v-15.64c0-1.487,0.744-2.23,2.23-2.23C105.943,173.28,106.687,174.023,106.687,175.51z"/>
		<path fill="#FFFFFF" stroke="#FFFFFF" stroke-width="3" stroke-miterlimit="10" d="M135.499,188.89
			c0,8.247-1.765,16.175-5.292,23.787c-0.873,1.823-1.388,2.874-1.546,3.151c-0.813,1.368-1.635,2.052-2.468,2.052
			c-0.595,0-1.13-0.218-1.605-0.654c-0.476-0.436-0.714-0.951-0.714-1.546c0-0.337,0.109-0.733,0.327-1.189
			c2.379-4.678,4.074-8.791,5.084-12.34c1.169-4.122,1.754-8.542,1.754-13.261c0-4.717-0.585-9.138-1.754-13.261
			c-1.011-3.548-2.706-7.671-5.084-12.369c-0.218-0.436-0.327-0.822-0.327-1.16c0-0.595,0.238-1.11,0.714-1.546
			c0.476-0.436,1.011-0.654,1.605-0.654c0.833,0,1.655,0.674,2.468,2.021c0.159,0.297,0.664,1.358,1.517,3.182
			C133.724,172.715,135.499,180.644,135.499,188.89z"/>
	</g>
	<g>
	</g>
	<g>
	</g>
	<g>
	</g>
	<g>
	</g>
	<g>
	</g>
	<g>
	</g>
	<g>
	</g>
	<g>
	</g>
	<g>
	</g>
	<g>
	</g>
	<g>
	</g>
	<g>
	</g>
	<g>
	</g>
	<g>
	</g>
	<g>
	</g>
</g>
</svg>
